# xmcd
#
# Track frame offsets: 
#        150
#        34004
#        57237
#        79502
#        152115
#        168928
#        187439
#        259643
#        279753
#        330979
#
# Disc length: 4669 seconds
#
# Revision: 0
# Processed by: cddbd v1.5.2PL0 Copyright (c) Steve Scherf et al.
# Submitted via: ExactAudioCopy v0.99pb5
#
DISCID=7b123b0a
DTITLE=Greensky Bluegrass - All Access: Vol. 1 - Disc 2
DYEAR=2009
DGENRE=Bluegrass
TTITLE0=What's Left of the Night
TTITLE1=200 Miles from Montana
TTITLE2=Hot Dogs (on Parade)
TTITLE3=All Four
TTITLE4=Less Than Supper
TTITLE5=Depot Bay
TTITLE6=King of the Hill
TTITLE7=Better Off
TTITLE8=Break Mountain Brokedown
TTITLE9=Tied Down
EXTD=
EXTT0=
EXTT1=
EXTT2=
EXTT3=
EXTT4=
EXTT5=
EXTT6=
EXTT7=
EXTT8=
EXTT9=
PLAYORDER=
